<svg version="1.0" xmlns="http://www.w3.org/2000/svg" width="206.667" height="206.667" viewBox="0 0 155 155"><path d="M104.1 35.4C94 48.9 85.6 60 85.3 60c-.2 0-1-1.5-1.8-3.3-.7-1.7-3.6-6.3-6.4-10.1-2.8-3.8-5.1-7.2-5.1-7.7 0-1.4-6.6-4.9-9.6-5-5.7-.3-7.3.1-11.8 3.6-3.6 2.7-6.7 4-13.9 5.5-12.7 2.8-12.7 3-.1 2.4 12.4-.6 17 .5 19.8 4.8 1.5 2.3 1.4 2.9-.9 9.5-5.1 14.7-.8 31.1 11.1 42.8 6.7 6.6 8.5 14.5 5.5 23.7-1 3-1.5 3.4-3.6 3-1.4-.2-2.2-.9-1.8-1.5.4-.6.1-.7-.8-.1-2.6 1.6-3.7 1.2-3.4-1.2.2-1.8-.1-2.2-1-1.4-.9.8-1.7.6-2.8-.5-.9-.8-2.1-1.5-2.8-1.5-.7 0-.9-.3-.6-.7.4-.3-.1-1.2-1.1-1.9-.9-.7-1.3-1.6-.9-2 .4-.5 1.9.5 3.3 2.1 1.9 2.2 2.4 2.4 1.9 1-.4-1.1-.8-2.6-.9-3.3-.1-.7-.8-1.8-1.6-2.5s-1-.8-.7-.1c.4.7-.3 1.4-1.8 1.8-1.4.4-2.5 1.1-2.5 1.7 0 .5-1.8 2.9-4 5.1-2.2 2.3-4 3.8-4 3.4 0-.5-.8-.2-1.8.5-1.5 1.3-1.6 1.2-.3-.3.7-1 1.7-1.6 2.1-1.3.5.3 1.1.1 1.5-.5.3-.5-.1-1-.9-1s-1.8.5-2.1 1c-.4.6-1 .8-1.5.5-.5-.3-1.1-.1-1.4.4-.4.5-.2 1.2.4 1.6 1.1.7 1.4 2.8.3 2.2-.5-.3-1.7-.1-2.8.4-1.8.7-1.8.8-.2.8 1 .1 1.5.6 1.2 1.1-.3.6.4 1 1.6 1 2.2 0 2.2 0 .3-1.6-1-.8-1.3-1.2-.6-.9.8.4 2-.1 2.8-1.1.9-1.1 1.3-1.4 1-.7-.4.6-.2 1.4.4 1.8 1 .6-2.7 4.2-6.5 6.3-1.8 1-1.6 1.2 2.8 3.1 6 2.6 18 3.6 24.7 2.2 18.1-3.9 33.4-20.9 35.6-39.3l.6-5.3h8.2c9.5 0 14.5-2 21.7-8.8 5.3-5 12.1-14.1 11.2-15.1-.3-.3-.1-.6.5-.6 1.5 0 4.4-6.9 3.5-8.3-.3-.5-.2-.7.4-.4 1.3.8 3.6-4.1 2.7-5.5-.4-.7-.2-.8.4-.4 1.1.6 1.6-.6 1.3-2.7 0-.4.4-.7 1.1-.7.6 0 .9-.3.5-.6-.3-.4 0-2.2.8-4.1.8-2 1.5-3.7 1.5-3.8 0-.2-6.4 2.1-14.2 5.1-7.8 2.9-14.5 5.1-14.9 4.9-.4-.3-.3-2.4.3-4.7 1.1-4.8 1.3-20.2.4-26.3-.3-2.2-.8-6-1.1-8.4-.3-2.4-.9-5-1.4-5.8-.6-1.1-5.8 5.3-19 23.1zM10.2 56.2C2.4 69 .5 75.5.5 89c0 8.3.5 11.9 2.3 17.2 2.5 7.1 10.2 20.1 10.9 18.1.2-.6-1.1-3.5-3-6.5-5.6-8.7-7.9-16.2-8.3-26.3-.5-13.6 3-25.5 10.3-35.3 1.8-2.4 2-3.2.9-3.2-.8 0-2.3 1.5-3.4 3.2z"/><path d="M23.8 64.7c-6.3 7.6-9.3 20.4-7.5 31.3 1.2 6.9 7 18 9.4 18 .7 0 0-1.9-1.7-4.6-7.9-12.5-8.2-29.4-.7-40.5 3.6-5.3 3.9-5.9 2.9-5.9-.5 0-1.6.8-2.4 1.7zm11.7 10.7C33 79.2 31.3 86 31.6 90.5c.4 4.5 4.3 12.7 6.3 13.3 1 .3.7-.8-.9-3.9-3.5-6.8-3.6-7.1-3.4-11.7.2-4.7 1.9-9.7 4.1-12.4.9-1 1.1-1.8.4-2.2-.6-.4-1.7.5-2.6 1.8zm24 47.5c-.3.5-.1 1.2.5 1.6.5.3 1-.1 1-.9 0-1.8-.6-2.1-1.5-.7zm4 4.1c.3.5.8 1 1.1 1 .2 0 .4-.5.4-1 0-.6-.5-1-1.1-1-.5 0-.7.4-.4 1z"/></svg>